<?xml version="1.0" encoding="utf-8" standalone="no"?>
<!DOCTYPE svg PUBLIC "-//W3C//DTD SVG 1.1//EN"
  "http://www.w3.org/Graphics/SVG/1.1/DTD/svg11.dtd">
<svg xmlns:xlink="http://www.w3.org/1999/xlink" width="720pt" height="720pt" viewBox="0 0 720 720" xmlns="http://www.w3.org/2000/svg" version="1.1">
 <metadata>
  <rdf:RDF xmlns:dc="http://purl.org/dc/elements/1.1/" xmlns:cc="http://creativecommons.org/ns#" xmlns:rdf="http://www.w3.org/1999/02/22-rdf-syntax-ns#">
   <cc:Work>
    <dc:type rdf:resource="http://purl.org/dc/dcmitype/StillImage"/>
    <dc:date>2022-12-31T00:42:59.873007</dc:date>
    <dc:format>image/svg+xml</dc:format>
    <dc:creator>
     <cc:Agent>
      <dc:title>Matplotlib v3.6.2, https://matplotlib.org/</dc:title>
     </cc:Agent>
    </dc:creator>
   </cc:Work>
  </rdf:RDF>
 </metadata>
 <defs>
  <style type="text/css">*{stroke-linejoin: round; stroke-linecap: butt}</style>
 </defs>
 <g id="figure_1">
  <g id="patch_1">
   <path d="M 0 720 
L 720 720 
L 720 0 
L 0 0 
L 0 720 
z
" style="fill: none"/>
  </g>
  <g id="axes_1">
   <g id="patch_2">
    <path d="M 360 690 
C 447.517023 690 531.461357 655.229118 593.345238 593.345238 
C 655.229118 531.461357 690 447.517023 690 360 
C 690 272.482977 655.229118 188.538643 593.345238 126.654762 
C 531.461357 64.770882 447.517023 30 360 30 
C 272.482977 30 188.538643 64.770882 126.654762 126.654762 
C 64.770882 188.538643 30 272.482977 30 360 
C 30 447.517023 64.770882 531.461357 126.654762 593.345238 
C 188.538643 655.229118 272.482977 690 360 690 
z
" clip-path="url(#paf41c64908)" style="fill: #0000ff; stroke: #0000ff; stroke-linejoin: miter"/>
   </g>
   <g id="patch_3">
    <path d="M 360 660 
C 439.56093 660 515.873961 628.390107 572.132034 572.132034 
C 628.390107 515.873961 660 439.56093 660 360 
C 660 280.43907 628.390107 204.126039 572.132034 147.867966 
C 515.873961 91.609893 439.56093 60 360 60 
C 280.43907 60 204.126039 91.609893 147.867966 147.867966 
C 91.609893 204.126039 60 280.43907 60 360 
C 60 439.56093 91.609893 515.873961 147.867966 572.132034 
C 204.126039 628.390107 280.43907 660 360 660 
z
" clip-path="url(#paf41c64908)" style="fill: #ffffff; stroke: #ffffff; stroke-linejoin: miter"/>
   </g>
   <g id="patch_4">
    <path d="M 360 630 
C 431.604837 630 500.286565 601.551097 550.918831 550.918831 
C 601.551097 500.286565 630 431.604837 630 360 
C 630 288.395163 601.551097 219.713435 550.918831 169.081169 
C 500.286565 118.448903 431.604837 90 360 90 
C 288.395163 90 219.713435 118.448903 169.081169 169.081169 
C 118.448903 219.713435 90 288.395163 90 360 
C 90 431.604837 118.448903 500.286565 169.081169 550.918831 
C 219.713435 601.551097 288.395163 630 360 630 
z
" clip-path="url(#paf41c64908)" style="fill: #ff0000; stroke: #ff0000; stroke-linejoin: miter"/>
   </g>
   <g id="patch_5">
    <path d="M 360 600 
C 423.648744 600 484.699169 574.712086 529.705627 529.705627 
C 574.712086 484.699169 600 423.648744 600 360 
C 600 296.351256 574.712086 235.300831 529.705627 190.294373 
C 484.699169 145.287914 423.648744 120 360 120 
C 296.351256 120 235.300831 145.287914 190.294373 190.294373 
C 145.287914 235.300831 120 296.351256 120 360 
C 120 423.648744 145.287914 484.699169 190.294373 529.705627 
C 235.300831 574.712086 296.351256 600 360 600 
z
" clip-path="url(#paf41c64908)" style="fill: #ffffff; stroke: #ffffff; stroke-linejoin: miter"/>
   </g>
   <g id="patch_6">
    <path d="M 360 570 
C 415.692651 570 469.111773 547.873075 508.492424 508.492424 
C 547.873075 469.111773 570 415.692651 570 360 
C 570 304.307349 547.873075 250.888227 508.492424 211.507576 
C 469.111773 172.126925 415.692651 150 360 150 
C 304.307349 150 250.888227 172.126925 211.507576 211.507576 
C 172.126925 250.888227 150 304.307349 150 360 
C 150 415.692651 172.126925 469.111773 211.507576 508.492424 
C 250.888227 547.873075 304.307349 570 360 570 
z
" clip-path="url(#paf41c64908)" style="fill: #0000ff; stroke: #0000ff; stroke-linejoin: miter"/>
   </g>
   <g id="patch_7">
    <path d="M 360 540 
C 407.736558 540 453.524377 521.034064 487.279221 487.279221 
C 521.034064 453.524377 540 407.736558 540 360 
C 540 312.263442 521.034064 266.475623 487.279221 232.720779 
C 453.524377 198.965936 407.736558 180 360 180 
C 312.263442 180 266.475623 198.965936 232.720779 232.720779 
C 198.965936 266.475623 180 312.263442 180 360 
C 180 407.736558 198.965936 453.524377 232.720779 487.279221 
C 266.475623 521.034064 312.263442 540 360 540 
z
" clip-path="url(#paf41c64908)" style="fill: #ffffff; stroke: #ffffff; stroke-linejoin: miter"/>
   </g>
   <g id="patch_8">
    <path d="M 360 510 
C 399.780465 510 437.936981 494.195054 466.066017 466.066017 
C 494.195054 437.936981 510 399.780465 510 360 
C 510 320.219535 494.195054 282.063019 466.066017 253.933983 
C 437.936981 225.804946 399.780465 210 360 210 
C 320.219535 210 282.063019 225.804946 253.933983 253.933983 
C 225.804946 282.063019 210 320.219535 210 360 
C 210 399.780465 225.804946 437.936981 253.933983 466.066017 
C 282.063019 494.195054 320.219535 510 360 510 
z
" clip-path="url(#paf41c64908)" style="fill: #ff0000; stroke: #ff0000; stroke-linejoin: miter"/>
   </g>
   <g id="patch_9">
    <path d="M 360 480 
C 391.824372 480 422.349584 467.356043 444.852814 444.852814 
C 467.356043 422.349584 480 391.824372 480 360 
C 480 328.175628 467.356043 297.650416 444.852814 275.147186 
C 422.349584 252.643957 391.824372 240 360 240 
C 328.175628 240 297.650416 252.643957 275.147186 275.147186 
C 252.643957 297.650416 240 328.175628 240 360 
C 240 391.824372 252.643957 422.349584 275.147186 444.852814 
C 297.650416 467.356043 328.175628 480 360 480 
z
" clip-path="url(#paf41c64908)" style="fill: #ffffff; stroke: #ffffff; stroke-linejoin: miter"/>
   </g>
   <g id="patch_10">
    <path d="M 360 450 
C 383.868279 450 406.762188 440.517032 423.63961 423.63961 
C 440.517032 406.762188 450 383.868279 450 360 
C 450 336.131721 440.517032 313.237812 423.63961 296.36039 
C 406.762188 279.482968 383.868279 270 360 270 
C 336.131721 270 313.237812 279.482968 296.36039 296.36039 
C 279.482968 313.237812 270 336.131721 270 360 
C 270 383.868279 279.482968 406.762188 296.36039 423.63961 
C 313.237812 440.517032 336.131721 450 360 450 
z
" clip-path="url(#paf41c64908)" style="fill: #0000ff; stroke: #0000ff; stroke-linejoin: miter"/>
   </g>
   <g id="patch_11">
    <path d="M 360 420 
C 375.912186 420 391.174792 413.678021 402.426407 402.426407 
C 413.678021 391.174792 420 375.912186 420 360 
C 420 344.087814 413.678021 328.825208 402.426407 317.573593 
C 391.174792 306.321979 375.912186 300 360 300 
C 344.087814 300 328.825208 306.321979 317.573593 317.573593 
C 306.321979 328.825208 300 344.087814 300 360 
C 300 375.912186 306.321979 391.174792 317.573593 402.426407 
C 328.825208 413.678021 344.087814 420 360 420 
z
" clip-path="url(#paf41c64908)" style="fill: #ffffff; stroke: #ffffff; stroke-linejoin: miter"/>
   </g>
   <g id="patch_12">
    <path d="M 360 390 
C 367.956093 390 375.587396 386.839011 381.213203 381.213203 
C 386.839011 375.587396 390 367.956093 390 360 
C 390 352.043907 386.839011 344.412604 381.213203 338.786797 
C 375.587396 333.160989 367.956093 330 360 330 
C 352.043907 330 344.412604 333.160989 338.786797 338.786797 
C 333.160989 344.412604 330 352.043907 330 360 
C 330 367.956093 333.160989 375.587396 338.786797 381.213203 
C 344.412604 386.839011 352.043907 390 360 390 
z
" clip-path="url(#paf41c64908)" style="fill: #ff0000; stroke: #ff0000; stroke-linejoin: miter"/>
   </g>
  </g>
 </g>
 <defs>
  <clipPath id="paf41c64908">
   <rect x="0" y="0" width="720" height="720"/>
  </clipPath>
 </defs>
</svg>
